<svg xmlns="http://www.w3.org/2000/svg" viewBox="0 0 1200 620" role="img" aria-labelledby="title desc">
  <title id="title">CCC consortium network map</title>
  <desc id="desc">A stylised world map showing countries participating in the Campylobacter Control Campaign.</desc>
  <defs>
    <filter id="softShadow" x="-20%" y="-20%" width="140%" height="140%">
      <feDropShadow dx="0" dy="8" stdDeviation="10" flood-color="#13201c" flood-opacity="0.10"/>
    </filter>
  </defs>
  <style>
    .ocean{fill:#f8fbf8}
    .grat{stroke:#dce5e0;stroke-width:1;opacity:.75}
    .land{fill:#dcebe4;stroke:#bfd5cb;stroke-width:2;filter:url(#softShadow)}
    .pin-outer{fill:#006c5b;stroke:white;stroke-width:3}
    .pin-inner{fill:#f4b547}
    .leader{stroke:#006c5b;stroke-width:1.5;opacity:.6}
    .pin-label{font-family:Inter,system-ui,-apple-system,BlinkMacSystemFont,"Segoe UI",sans-serif;font-size:20px;font-weight:800;fill:#13201c;paint-order:stroke;stroke:#f8fbf8;stroke-width:5;stroke-linejoin:round}
    .title{font-family:Inter,system-ui,-apple-system,BlinkMacSystemFont,"Segoe UI",sans-serif;font-size:30px;font-weight:900;fill:#13201c}
    .subtitle{font-family:Inter,system-ui,-apple-system,BlinkMacSystemFont,"Segoe UI",sans-serif;font-size:16px;font-weight:650;fill:#5d6b66}
  </style>
  <rect width="1200" height="620" rx="34" class="ocean"/>
  <line x1="200.0" y1="50" x2="200.0" y2="570" class="grat"/>
<line x1="400.0" y1="50" x2="400.0" y2="570" class="grat"/>
<line x1="600.0" y1="50" x2="600.0" y2="570" class="grat"/>
<line x1="800.0" y1="50" x2="800.0" y2="570" class="grat"/>
<line x1="1000.0" y1="50" x2="1000.0" y2="570" class="grat"/>
<line x1="1200.0" y1="50" x2="1200.0" y2="570" class="grat"/>
<line x1="80" y1="516.7" x2="1120" y2="516.7" class="grat"/>
<line x1="80" y1="413.3" x2="1120" y2="413.3" class="grat"/>
<line x1="80" y1="310.0" x2="1120" y2="310.0" class="grat"/>
<line x1="80" y1="206.7" x2="1120" y2="206.7" class="grat"/>
<line x1="80" y1="103.3" x2="1120" y2="103.3" class="grat"/>
  <path d="M140,185 C170,95 280,80 350,140 C390,180 350,240 285,250 C225,260 150,245 140,185 Z" class="land"/>
<path d="M340,325 C405,355 430,455 385,555 C335,520 315,430 300,360 C306,335 318,320 340,325 Z" class="land"/>
<path d="M540,165 C600,125 680,135 705,185 C660,210 590,215 545,195 C535,185 532,174 540,165 Z" class="land"/>
<path d="M610,235 C700,230 765,310 745,415 C720,530 620,540 580,425 C545,330 555,250 610,235 Z" class="land"/>
<path d="M720,160 C870,115 1040,160 1080,255 C1030,330 900,320 805,280 C740,250 700,205 720,160 Z" class="land"/>
<path d="M875,320 C935,335 980,390 955,440 C900,430 860,375 875,320 Z" class="land"/>
<path d="M965,455 C1030,430 1105,465 1100,520 C1040,545 970,525 945,485 C950,470 956,462 965,455 Z" class="land"/>
  <line x1="590.0" y1="120.6" x2="600.0" y2="104.6" class="leader"/>
<circle cx="590.0" cy="120.6" r="8" class="pin-outer"/>
<circle cx="590.0" cy="120.6" r="4" class="pin-inner"/>
<text x="600.0" y="108.6" text-anchor="start" class="pin-label">United Kingdom</text>
<line x1="353.0" y1="294.2" x2="267.0" y2="308.2" class="leader"/>
<circle cx="353.0" cy="294.2" r="8" class="pin-outer"/>
<circle cx="353.0" cy="294.2" r="4" class="pin-inner"/>
<text x="267.0" y="312.2" text-anchor="end" class="pin-label">Colombia</text>
<line x1="607.7" y1="278.0" x2="623.7" y2="266.0" class="leader"/>
<circle cx="607.7" cy="278.0" r="8" class="pin-outer"/>
<circle cx="607.7" cy="278.0" r="4" class="pin-inner"/>
<text x="623.7" y="270.0" text-anchor="start" class="pin-label">Benin</text>
<line x1="595.0" y1="267.3" x2="483.0" y2="245.3" class="leader"/>
<circle cx="595.0" cy="267.3" r="8" class="pin-outer"/>
<circle cx="595.0" cy="267.3" r="4" class="pin-inner"/>
<text x="483.0" y="249.3" text-anchor="end" class="pin-label">Burkina Faso</text>
<line x1="581.7" y1="284.2" x2="459.7" y2="310.2" class="leader"/>
<circle cx="581.7" cy="284.2" r="8" class="pin-outer"/>
<circle cx="581.7" cy="284.2" r="4" class="pin-inner"/>
<text x="459.7" y="314.2" text-anchor="end" class="pin-label">Côte d’Ivoire</text>
<line x1="596.7" y1="282.8" x2="610.7" y2="306.8" class="leader"/>
<circle cx="596.7" cy="282.8" r="8" class="pin-outer"/>
<circle cx="596.7" cy="282.8" r="4" class="pin-inner"/>
<text x="610.7" y="310.8" text-anchor="start" class="pin-label">Ghana</text>
<line x1="548.7" y1="263.8" x2="446.7" y2="267.8" class="leader"/>
<circle cx="548.7" cy="263.8" r="8" class="pin-outer"/>
<circle cx="548.7" cy="263.8" r="4" class="pin-inner"/>
<text x="446.7" y="271.8" text-anchor="end" class="pin-label">The Gambia</text>
<line x1="587.0" y1="249.4" x2="517.0" y2="221.4" class="leader"/>
<circle cx="587.0" cy="249.4" r="8" class="pin-outer"/>
<circle cx="587.0" cy="249.4" r="4" class="pin-inner"/>
<text x="517.0" y="225.4" text-anchor="end" class="pin-label">Mali</text>
<line x1="629.0" y1="278.7" x2="643.0" y2="286.7" class="leader"/>
<circle cx="629.0" cy="278.7" r="8" class="pin-outer"/>
<circle cx="629.0" cy="278.7" r="4" class="pin-inner"/>
<text x="643.0" y="290.7" text-anchor="start" class="pin-label">Nigeria</text>
<line x1="642.3" y1="290.4" x2="656.3" y2="312.4" class="leader"/>
<circle cx="642.3" cy="290.4" r="8" class="pin-outer"/>
<circle cx="642.3" cy="290.4" r="4" class="pin-inner"/>
<text x="656.3" y="316.4" text-anchor="start" class="pin-label">Cameroon</text>
<line x1="702.7" y1="217.7" x2="716.7" y2="203.7" class="leader"/>
<circle cx="702.7" cy="217.7" r="8" class="pin-outer"/>
<circle cx="702.7" cy="217.7" r="4" class="pin-inner"/>
<text x="716.7" y="207.7" text-anchor="start" class="pin-label">Egypt</text>
<line x1="735.0" y1="278.7" x2="751.0" y2="278.7" class="leader"/>
<circle cx="735.0" cy="278.7" r="8" class="pin-outer"/>
<circle cx="735.0" cy="278.7" r="4" class="pin-inner"/>
<text x="751.0" y="282.7" text-anchor="start" class="pin-label">Ethiopia</text>
<line x1="714.3" y1="355.8" x2="728.3" y2="369.8" class="leader"/>
<circle cx="714.3" cy="355.8" r="8" class="pin-outer"/>
<circle cx="714.3" cy="355.8" r="4" class="pin-inner"/>
<text x="728.3" y="373.8" text-anchor="start" class="pin-label">Malawi</text>
<line x1="718.3" y1="374.4" x2="732.3" y2="376.4" class="leader"/>
<circle cx="718.3" cy="374.4" r="8" class="pin-outer"/>
<circle cx="718.3" cy="374.4" r="4" class="pin-inner"/>
<text x="732.3" y="380.4" text-anchor="start" class="pin-label">Mozambique</text>
<line x1="901.3" y1="228.4" x2="915.3" y2="214.4" class="leader"/>
<circle cx="901.3" cy="228.4" r="8" class="pin-outer"/>
<circle cx="901.3" cy="228.4" r="4" class="pin-inner"/>
<text x="915.3" y="218.4" text-anchor="start" class="pin-label">Bangladesh</text>
<line x1="860.0" y1="234.2" x2="808.0" y2="258.2" class="leader"/>
<circle cx="860.0" cy="234.2" r="8" class="pin-outer"/>
<circle cx="860.0" cy="234.2" r="4" class="pin-inner"/>
<text x="808.0" y="262.2" text-anchor="end" class="pin-label">India</text>
<line x1="936.7" y1="255.2" x2="950.7" y2="269.2" class="leader"/>
<circle cx="936.7" cy="255.2" r="8" class="pin-outer"/>
<circle cx="936.7" cy="255.2" r="4" class="pin-inner"/>
<text x="950.7" y="273.2" text-anchor="start" class="pin-label">Thailand</text>
  <text x="60" y="56" class="title">CCC network map</text>
  <text x="60" y="84" class="subtitle">Current participating countries and institutional partners</text>
</svg>
